<svg xmlns="http://www.w3.org/2000/svg" viewBox="0 0 400 400">
  <defs>
    <linearGradient id="grad1" x1="0%" y1="0%" x2="100%" y2="100%">
      <stop offset="0%" style="stop-color:#0f172a;stop-opacity:1" />
      <stop offset="100%" style="stop-color:#1e293b;stop-opacity:1" />
    </linearGradient>
    <linearGradient id="grad2" x1="0%" y1="0%" x2="100%" y2="0%">
      <stop offset="0%" style="stop-color:#06b6d4;stop-opacity:1" />
      <stop offset="100%" style="stop-color:#3b82f6;stop-opacity:1" />
    </linearGradient>
  </defs>

  <rect width="400" height="400" rx="40" fill="url(#grad1)" />

  <g transform="translate(200, 200)">
    <path d="M-110,-25 L-130,-25 L-135,-60 L-100,-80 L-90,-115 L-55,-105 L-30,-140 L-10,-140 L10,-140 L30,-140 L55,-105 L90,-115 L100,-80 L135,-60 L130,-25 L110,-25 L110,25 L130,25 L135,60 L100,80 L90,115 L55,105 L30,140 L-30,140 L-55,105 L-90,115 L-100,80 L-135,60 L-130,25 L-110,25 Z"
          fill="none" stroke="url(#grad2)" stroke-width="12" stroke-linecap="round" stroke-linejoin="round"/>

    <path d="M-60,-60 C-60,-60 60,-60 60,-60 C 60,10 60,40 0,90 C -60,40 -60,10 -60,-60 Z"
          fill="#1e293b" stroke="#38bdf8" stroke-width="8" />

    <circle cx="0" cy="-10" r="15" fill="#38bdf8" />
    <rect x="-6" y="-10" width="12" height="40" rx="6" fill="#38bdf8" />
  </g>

  <text x="200" y="340" font-family="Arial, sans-serif" font-weight="bold" font-size="32" fill="#e2e8f0" text-anchor="middle" letter-spacing="2">SECURE MINT</text>
</svg>
